#!OML:ASF X:\für Bonn\!DataBase\2005_08_12_Daniel\c3d\Daniel.ASF
:FULLY-SPECIFIED
:DEGREES
2016
root -25.1687 17.3089 23.543 -370.251 -20.0377 -365.514
lowerback 13.3467 -0.982712 0.985555
upperback 1.84551 -1.21305 -0.590392
thorax -5.57086 -0.628996 -0.959771
lowerneck 0.959474 7.53794 -3.15455
upperneck 9.82838 10.6817 -6.71543
head 3.24536 4.93579 -1.37194
rclavicle -1.28713e-014 -1.66979e-014
rhumerus -33.3147 -0.71742 -92.5648
rradius 32.1546
rwrist 8.89606
rhand -22.6334 23.3475
rfingers 7.12502
rthumb 3.79709 -6.59844
lclavicle -1.28713e-014 -1.66979e-014
lhumerus -41.6904 47.6071 60.758
lradius 15.8818
lwrist -55.9956
lhand 4.39583 -12.2048
lfingers 7.12502
lthumb 29.7935 15.4196
rfemur -9.92171 1.34146 22.9353
rtibia 54.196
rfoot -9.34125 1.87992
rtoes -10.1856
lfemur -10.672 -2.03922 -22.0868
ltibia 43.8268
lfoot -17.7957 -6.95677
ltoes -6.30724
2017
root -25.225 17.314 23.5935 -370.152 -19.1977 -365.424
lowerback 13.2568 -0.961676 0.79265
upperback 1.82672 -1.21334 -0.600811
thorax -5.53727 -0.624874 -0.862855
lowerneck 1.07462 7.49471 -3.17418
upperneck 9.69288 10.6109 -6.75403
head 3.17705 4.90812 -1.38958
rclavicle -5.16343e-014 7.95139e-016
rhumerus -33.6455 -1.36035 -91.9756
rradius 31.4306
rwrist 9.4186
rhand -22.4636 23.2622
rfingers 7.12502
rthumb 3.96108 -6.68076
lclavicle -5.16343e-014 7.95139e-016
lhumerus -40.3904 45.0609 63.2551
lradius 16.5488
lwrist -58.0788
lhand 4.32045 -12.1822
lfingers 7.12502
lthumb 29.7216 15.4551
rfemur -9.96678 2.2637 22.9329
rtibia 52.8788
rfoot -9.98353 2.06578
rtoes -10.3944
lfemur -10.5486 -2.52201 -22.1415
ltibia 43.6654
lfoot -17.9558 -7.20856
ltoes -6.26569
2018
root -25.2796 17.3162 23.6421 -370.055 -18.3257 -365.347
lowerback 13.1797 -0.958184 0.637139
upperback 1.79381 -1.23127 -0.61415
thorax -5.52685 -0.63032 -0.786718
lowerneck 1.29821 7.45814 -3.23487
upperneck 9.51826 10.5358 -6.76008
head 3.07086 4.88196 -1.39486
rclavicle -1.40143e-014 8.74653e-015
rhumerus -34.042 -1.92696 -91.4033
rradius 30.7403
rwrist 9.84518
rhand -22.3825 23.1751
rfingers 7.12502
rthumb 4.03945 -6.76636
lclavicle -1.40143e-014 8.74653e-015
lhumerus -39.4373 42.5162 65.4996
lradius 17.3792
lwrist -59.2841
lhand 4.0586 -11.6165
lfingers 7.12502
lthumb 29.4716 16.0652
rfemur -9.98329 3.21367 22.8942
rtibia 51.5474
rfoot -10.6816 2.29613
rtoes -10.7828
lfemur -10.4446 -3.03276 -22.1844
ltibia 43.5197
lfoot -18.1205 -7.43156
ltoes -6.24211
2019
root -25.3334 17.3206 23.6898 -369.963 -17.4582 -365.226
lowerback 13.0729 -0.926849 0.470346
upperback 1.7777 -1.21514 -0.650536
thorax -5.48181 -0.618946 -0.735051
lowerneck 1.55019 7.39922 -3.29691
upperneck 9.33566 10.4274 -6.75935
head 2.95599 4.84046 -1.3996
rclavicle 3.36443e-014 -1.35174e-014
rhumerus -34.4056 -2.56128 -90.8043
rradius 30.0492
rwrist 10.2935
rhand -22.2742 23.0122
rfingers 7.12502
rthumb 4.14402 -6.92725
lclavicle 3.36443e-014 -1.35174e-014
lhumerus -38.79 40.1414 67.4676
lradius 18.3461
lwrist -59.8495
lhand 3.50063 -10.8104
lfingers 7.12502
lthumb 28.9388 16.9639
rfemur -9.99729 4.23919 22.7864
rtibia 50.2025
rfoot -11.3584 2.56634
rtoes -11.534
lfemur -10.3444 -3.56914 -22.2765
ltibia 43.3632
lfoot -18.2879 -7.60312
ltoes -6.28306
2020
root -25.3871 17.3234 23.7351 -369.903 -16.5758 -365.105
lowerback 12.999 -0.892531 0.320361
upperback 1.78399 -1.19336 -0.704534
thorax -5.43209 -0.605339 -0.71201
lowerneck 1.824 7.34224 -3.36424
upperneck 9.1303 10.3151 -6.7209
head 2.82713 4.79946 -1.3923
rclavicle 1.41634e-014 1.66979e-014
rhumerus -34.7745 -3.21325 -90.2284
rradius 29.3969
rwrist 10.7339
rhand -22.1826 22.7797
rfingers 7.12502
rthumb 4.23242 -7.15796
lclavicle 1.41634e-014 1.66979e-014
lhumerus -38.3642 38.2313 69.0063
lradius 19.2554
lwrist -60.0545
lhand 2.49829 -9.9836
lfingers 7.12502
lthumb 27.981 17.9508
rfemur -9.96127 5.36917 22.6787
rtibia 48.8361
rfoot -12.0288 2.78706
rtoes -12.4199
lfemur -10.2252 -4.06194 -22.36
ltibia 43.2068
lfoot -18.4489 -7.78686
ltoes -6.28972
2021
root -25.4399 17.3274 23.7798 -369.818 -15.6754 -364.974
lowerback 12.9258 -0.858773 0.157379
upperback 1.75901 -1.17335 -0.749684
thorax -5.41529 -0.592322 -0.671725
lowerneck 2.12663 7.28025 -3.41574
upperneck 8.94269 10.1985 -6.72202
head 2.70362 4.75537 -1.40099
rclavicle 1.75179e-014 1.43125e-014
rhumerus -35.2052 -3.88896 -89.621
rradius 28.7686
rwrist 11.2213
rhand -22.0653 22.5598
rfingers 7.12502
rthumb 4.34574 -7.37564
lclavicle 1.75179e-014 1.43125e-014
lhumerus -38.0881 36.5929 70.29
lradius 20.1051
lwrist -59.5709
lhand 1.06038 -9.30043
lfingers 7.12502
lthumb 26.6056 18.8504
rfemur -9.93994 6.59513 22.5413
rtibia 47.4597
rfoot -12.6918 2.95713
rtoes -13.565
lfemur -10.1352 -4.61963 -22.4568
ltibia 43.0298
lfoot -18.5896 -7.92378
ltoes -6.24127
2022
root -25.4924 17.3308 23.8228 -369.743 -14.7629 -364.839
lowerback 12.8498 -0.829352 -0.0131719
upperback 1.76257 -1.15973 -0.79376
thorax -5.36689 -0.582318 -0.625129
lowerneck 2.34152 7.23685 -3.50319
upperneck 8.78604 10.1109 -6.66919
head 2.60196 4.72285 -1.3819
rclavicle 1.46107e-014 -7.15625e-015
rhumerus -35.598 -4.59328 -89.0078
rradius 28.156
rwrist 11.7273
rhand -21.9483 22.3168
rfingers 7.12502
rthumb 4.45872 -7.61628
lclavicle 1.46107e-014 -7.15625e-015
lhumerus -37.9046 35.1097 71.4567
lradius 20.9683
lwrist -58.2043
lhand -0.904183 -8.87681
lfingers 7.12502
lthumb 24.724 19.5455
rfemur -9.87495 7.93141 22.3966
rtibia 46.0796
rfoot -13.3004 3.079
rtoes -14.6149
lfemur -10.0347 -5.11998 -22.5463
ltibia 42.8475
lfoot -18.755 -8.08633
ltoes -6.27991
2023
root -25.5434 17.3348 23.8652 -369.688 -13.8097 -364.672
lowerback 12.8152 -0.804915 -0.18567
upperback 1.7514 -1.15405 -0.855809
thorax -5.35736 -0.576354 -0.594243
lowerneck 2.53994 7.18781 -3.56966
upperneck 8.69293 10.0231 -6.63212
head 2.52742 4.68734 -1.36966
rclavicle 3.49116e-014 -1.90833e-014
rhumerus -36.0157 -5.36489 -88.3805
rradius 27.4981
rwrist 12.3307
rhand -21.8153 22.0483
rfingers 7.12502
rthumb 4.58711 -7.88204
lclavicle 3.49116e-014 -1.90833e-014
lhumerus -37.8478 33.6191 72.5313
lradius 21.9124
lwrist -55.8582
lhand -3.1784 -8.86253
lfingers 7.12502
lthumb 22.5427 19.8414
rfemur -9.77313 9.27428 22.1723
rtibia 44.7087
rfoot -13.8242 3.28334
rtoes -15.4835
lfemur -9.91898 -5.68322 -22.6942
ltibia 42.6515
lfoot -18.9481 -8.16982
ltoes -6.53632
2024
root -25.5952 17.3379 23.9063 -369.619 -12.8464 -364.51
lowerback 12.7478 -0.770104 -0.352056
upperback 1.76487 -1.13339 -0.922097
thorax -5.30382 -0.563285 -0.57439
lowerneck 2.64799 7.13339 -3.63423
upperneck 8.6497 9.93635 -6.56702
head 2.48416 4.64925 -1.34449
rclavicle -2.86498e-014 -9.54166e-015
rhumerus -36.4211 -6.05084 -87.7985
rradius 26.9058
rwrist 12.7799
rhand -21.7002 21.7856
rfingers 7.12502
rthumb 4.69821 -8.14234
lclavicle -2.86498e-014 -9.54166e-015
lhumerus -37.7779 31.9392 73.6734
lradius 23.0194
lwrist -52.3012
lhand -5.41706 -9.26597
lfingers 7.12502
lthumb 20.3927 19.6833
rfemur -9.66264 10.7327 21.9583
rtibia 43.3612
rfoot -14.3119 3.52016
rtoes -16.5395
lfemur -9.81426 -6.26442 -22.8242
ltibia 42.4575
lfoot -19.1501 -8.24567
ltoes -6.66042
2025
root -25.646 17.3421 23.9475 -369.542 -11.8352 -364.363
lowerback 12.6916 -0.753786 -0.485178
upperback 1.76238 -1.13287 -0.99346
thorax -5.27427 -0.560799 -0.574906
lowerneck 2.75446 7.0858 -3.71827
upperneck 8.63628 9.85885 -6.4726
head 2.44867 4.61453 -1.30618
rclavicle 5.889e-015 7.95139e-016
rhumerus -36.8808 -6.75383 -87.2262
rradius 26.3296
rwrist 13.3101
rhand -21.5527 21.4662
rfingers 7.12502
rthumb 4.84072 -8.45851
lclavicle 5.889e-015 7.95139e-016
lhumerus -37.8044 30.2446 74.7213
lradius 24.2484
lwrist -47.9431
lhand -7.44086 -9.94623
lfingers 7.12502
lthumb 18.4468 19.1991
rfemur -9.53098 12.1404 21.7178
rtibia 42.0474
rfoot -14.7571 3.91755
rtoes -17.6919
lfemur -9.72705 -6.8945 -22.9545
ltibia 42.2622
lfoot -19.3854 -8.29744
ltoes -6.90899
2026
root -25.6968 17.3458 23.9871 -369.462 -10.7854 -364.194
lowerback 12.6313 -0.741144 -0.635994
upperback 1.76817 -1.14034 -1.08348
thorax -5.23386 -0.562128 -0.583731
lowerneck 2.82038 7.03201 -3.73288
upperneck 8.66194 9.78431 -6.44038
head 2.44133 4.57937 -1.29674
rclavicle -3.21286e-014 1.59028e-015
rhumerus -37.3242 -7.54548 -86.629
rradius 25.7262
rwrist 13.9574
rhand -21.3696 21.1725
rfingers 7.12502
rthumb 5.0175 -8.74814
lclavicle -3.21286e-014 1.59028e-015
lhumerus -37.8399 28.529 75.6913
lradius 25.5254
lwrist -42.8919
lhand -9.03444 -10.8199
lfingers 7.12502
lthumb 16.9133 18.4636
rfemur -9.38791 13.5425 21.431
rtibia 40.7802
rfoot -15.1028 4.4457
rtoes -18.7068
lfemur -9.66656 -7.48183 -23.0934
ltibia 42.0813
lfoot -19.6083 -8.38581
ltoes -7.13559
